<?xml version="1.0" encoding="UTF-8"?>
<svg xmlns="http://www.w3.org/2000/svg" xmlns:xlink="http://www.w3.org/1999/xlink" width="20px" height="23px" viewBox="0 0 20 22" version="1.1">
<g id="surface1">
<path style=" stroke:none;fill-rule:nonzero;fill:rgb(0%,0%,0%);fill-opacity:1;" d="M 10 8.707031 C 8.683594 8.707031 7.621094 9.734375 7.621094 11 C 7.621094 12.265625 8.6875 13.292969 10 13.292969 C 11.316406 13.292969 12.382812 12.265625 12.382812 11 C 12.382812 9.734375 11.316406 8.707031 10 8.707031 Z M 15.566406 6.945312 C 15.324219 6.347656 14.832031 5.875 14.210938 5.640625 C 13.273438 5.285156 11.039062 5.363281 10 5.363281 C 8.960938 5.363281 6.730469 5.28125 5.789062 5.640625 C 5.167969 5.875 4.675781 6.347656 4.433594 6.945312 C 4.0625 7.847656 4.144531 10 4.144531 11 C 4.144531 12 4.0625 14.148438 4.433594 15.054688 C 4.679688 15.652344 5.171875 16.125 5.792969 16.359375 C 6.730469 16.714844 8.960938 16.636719 10 16.636719 C 11.042969 16.636719 13.269531 16.71875 14.210938 16.359375 C 14.832031 16.125 15.324219 15.652344 15.570312 15.054688 C 15.941406 14.152344 15.855469 12 15.855469 11 C 15.855469 10 15.941406 7.851562 15.570312 6.945312 Z M 10 14.523438 C 7.976562 14.523438 6.339844 12.945312 6.339844 11 C 6.339844 9.054688 7.976562 7.476562 10 7.476562 C 12.023438 7.476562 13.660156 9.054688 13.660156 11 C 13.660156 11.933594 13.277344 12.832031 12.589844 13.492188 C 11.902344 14.152344 10.972656 14.523438 10 14.523438 Z M 13.8125 8.152344 C 13.339844 8.152344 12.957031 7.785156 12.957031 7.328125 C 12.957031 6.875 13.339844 6.507812 13.8125 6.507812 C 14.28125 6.507812 14.664062 6.875 14.664062 7.328125 C 14.667969 7.546875 14.578125 7.757812 14.417969 7.910156 C 14.257812 8.066406 14.039062 8.152344 13.8125 8.152344 Z M 17.855469 1.375 L 2.144531 1.375 C 0.960938 1.375 0 2.296875 0 3.4375 L 0 18.5625 C 0 19.703125 0.960938 20.625 2.144531 20.625 L 17.855469 20.625 C 19.039062 20.625 20 19.703125 20 18.5625 L 20 3.4375 C 20 2.296875 19.039062 1.375 17.855469 1.375 Z M 17.09375 13.835938 C 17.035156 14.9375 16.773438 15.914062 15.9375 16.714844 C 15.105469 17.515625 14.089844 17.773438 12.949219 17.824219 C 11.769531 17.890625 8.234375 17.890625 7.054688 17.824219 C 5.910156 17.769531 4.902344 17.519531 4.0625 16.714844 C 3.226562 15.910156 2.964844 14.933594 2.910156 13.835938 C 2.84375 12.699219 2.84375 9.296875 2.910156 8.164062 C 2.96875 7.0625 3.226562 6.085938 4.0625 5.285156 C 4.902344 4.484375 5.914062 4.230469 7.054688 4.175781 C 8.234375 4.113281 11.769531 4.113281 12.949219 4.175781 C 14.09375 4.234375 15.105469 4.484375 15.9375 5.289062 C 16.773438 6.089844 17.039062 7.066406 17.09375 8.167969 C 17.160156 9.300781 17.160156 12.699219 17.09375 13.835938 Z M 17.09375 13.835938 "/>
</g>
</svg>
